<?xml version="1.0" ?><svg viewBox="0 0 442.79 453.2" xmlns="http://www.w3.org/2000/svg"><defs><style>.cls-1{fill:#fbc907;}.cls-2{fill:#f3a70f;}.cls-3{fill:#426572;}.cls-4{fill:#fff;}</style></defs><title/><g data-name="Layer 2" id="Layer_2"><g data-name="Layer 1" id="Layer_1-2"><circle class="cls-1" cx="166.28" cy="392.05" r="55.15"/><circle class="cls-1" cx="361.51" cy="392.05" r="55.15"/><path class="cls-2" d="M222.53,392.05a54.7,54.7,0,0,1-1,10.48,55.15,55.15,0,0,0-108.29,0,55.15,55.15,0,1,1,109.3-10.48Z"/><path class="cls-2" d="M417.76,392.05a54.7,54.7,0,0,1-1,10.48,55.15,55.15,0,0,0-108.29,0,55.15,55.15,0,1,1,109.3-10.48Z"/><path class="cls-1" d="M92.38,278.26a42.1,42.1,0,0,0,42.1,42.1H394.42a42.1,42.1,0,0,0,42.1-42.1V122a42.1,42.1,0,0,0-42.1-42.1H93.48C91.27,105.27,92.38,278.26,92.38,278.26Z"/><path class="cls-2" d="M434,292.11a42.13,42.13,0,0,1-37.39,22.73h-260a42.1,42.1,0,0,1-42.09-42.09s-1.1-173,1.1-198.36H117c-1.13,52.81-.32,178.51-.32,178.51A42.1,42.1,0,0,0,158.73,295h260A42.06,42.06,0,0,0,434,292.11Z"/><path class="cls-3" d="M394.69,325.25H134.75a48.15,48.15,0,0,1-48.09-48.09V98.65A86.75,86.75,0,0,0,0,12V0A98.83,98.83,0,0,1,95.22,72.8H394.69a48.15,48.15,0,0,1,48.1,48.09V277.16A48.15,48.15,0,0,1,394.69,325.25ZM97.68,84.8a99,99,0,0,1,1,13.85V277.16a36.14,36.14,0,0,0,36.09,36.09H394.69a36.14,36.14,0,0,0,36.1-36.09V120.89a36.14,36.14,0,0,0-36.1-36.09Z"/><path class="cls-3" d="M164.07,453.2a61.15,61.15,0,1,1,61.15-61.15A61.22,61.22,0,0,1,164.07,453.2Zm0-110.3a49.15,49.15,0,1,0,49.15,49.15A49.21,49.21,0,0,0,164.07,342.9Z"/><path class="cls-3" d="M359.3,453.2a61.15,61.15,0,1,1,61.15-61.15A61.22,61.22,0,0,1,359.3,453.2Zm0-110.3a49.15,49.15,0,1,0,49.15,49.15A49.21,49.21,0,0,0,359.3,342.9Z"/><rect class="cls-3" height="239.35" width="12" x="136.6" y="82.11"/><rect class="cls-3" height="239.35" width="12" x="198.09" y="82.11"/><rect class="cls-3" height="239.35" width="12" x="259.58" y="82.11"/><rect class="cls-3" height="239.35" width="12" x="321.08" y="82.11"/><rect class="cls-3" height="239.35" width="12" x="382.57" y="82.11"/><rect class="cls-3" height="12" width="343.86" x="92.65" y="116.43"/><rect class="cls-3" height="12" width="343.86" x="92.65" y="168.52"/><rect class="cls-3" height="12" width="343.86" x="92.65" y="220.6"/><rect class="cls-3" height="12" width="343.86" x="92.65" y="272.69"/><path class="cls-4" d="M380.53,411.91a51.08,51.08,0,0,0,8.67-10.42,70.56,70.56,0,0,0,5.28-10c2.62-6,3.71-10.14,4.85-10,1,.07,1.81,4.55.32,11.64a46.4,46.4,0,0,1-4.34,12,45.32,45.32,0,0,1-9.61,12.54,40.84,40.84,0,0,1-13.59,8.31,51.83,51.83,0,0,1-12.32,2.79,46.88,46.88,0,0,1-8.31.23c-2-.16-3.09-.5-3.17-1s.9-1.18,2.71-1.92,4.47-1.57,7.66-2.59a87.93,87.93,0,0,0,10.73-4A43.43,43.43,0,0,0,380.53,411.91Z"/></g></g></svg>